<?xml version="1.0" encoding="utf-8"?>
<!-- Generator: Adobe Illustrator 15.0.0, SVG Export Plug-In . SVG Version: 6.00 Build 0)  -->
<!DOCTYPE svg PUBLIC "-//W3C//DTD SVG 1.1//EN" "http://www.w3.org/Graphics/SVG/1.1/DTD/svg11.dtd">
<svg version="1.1" xmlns="http://www.w3.org/2000/svg" xmlns:xlink="http://www.w3.org/1999/xlink" x="0px" y="0px" width="512px"
	 height="128px" viewBox="0 0 512 128" enable-background="new 0 0 512 128" xml:space="preserve">
<g id="Square" display="none">
	<rect display="inline" fill="#ED1C24" width="128" height="128"/>
	<polygon display="inline" fill="#FFF200" points="120,128 128,0 56,0 64,128 	"/>
</g>
<g id="Zag" display="none">
	<rect display="inline" fill="#ED1C24" width="128" height="128"/>
	<polygon display="inline" fill="#FFF200" points="0,0 64,128 128,0 	"/>
</g>
<g id="Wave">
	<rect fill="#ED1C24" width="512" height="128"/>
	<path fill="#2E3192" d="M256,104c-66.667,0-100.287-25.215-132.8-49.6C91.385,30.539,61.333,8,0,8h-64V-8h640V8h-64
		c-61.333,0-91.385,22.539-123.2,46.4C356.287,78.785,322.667,104,256,104z"/>
	<path fill="#FFF200" d="M512,0H0c128,0,128,96,256,96S384,0,512,0z"/>
</g>
</svg>
