<?xml version="1.0" encoding="utf-8"?>
<!-- Generator: Adobe Illustrator 15.0.0, SVG Export Plug-In . SVG Version: 6.00 Build 0)  -->
<!DOCTYPE svg PUBLIC "-//W3C//DTD SVG 1.1//EN" "http://www.w3.org/Graphics/SVG/1.1/DTD/svg11.dtd">
<svg version="1.1" xmlns="http://www.w3.org/2000/svg" xmlns:xlink="http://www.w3.org/1999/xlink" x="0px" y="0px" width="512px"
	 height="128px" viewBox="0 0 512 128" enable-background="new 0 0 512 128" xml:space="preserve">
<g id="Square">
	<rect fill="#ED1C24" width="512" height="128"/>
	<polygon fill="#2E3192" points="128,104 112,8 -64,8 -64,-8 576,-8 576,8 400,8 384,104 	"/>
	<polygon fill="#FFF200" points="376,96 392,0 120,0 136,96 	"/>
</g>
<g id="Zag" display="none">
	<rect display="inline" fill="#ED1C24" width="512" height="128"/>
	<polygon display="inline" fill="#2E3192" points="-2.809,7.491 -64,8 -64,-8 576,-8 576,8 514.809,7.491 256,104.544 	"/>
	<polygon display="inline" fill="#FFF200" points="0,0 256,96 512,0 	"/>
</g>
<g id="Wave" display="none">
	<rect display="inline" fill="#ED1C24" width="512" height="128"/>
	<path display="inline" fill="#2E3192" d="M256,104c-66.667,0-100.287-25.215-132.8-49.6C91.385,30.539,61.333,8,0,8h-64V-8h640V8
		h-64c-61.333,0-91.385,22.539-123.2,46.4C356.287,78.785,322.667,104,256,104z"/>
	<path display="inline" fill="#FFF200" d="M512,0H0c128,0,128,96,256,96S384,0,512,0z"/>
</g>
</svg>
